#!OML:ASF X:\für Bonn\!DataBase\2005_08_10_Bjorn_Final\c3d\bjorn.ASF
:FULLY-SPECIFIED
:DEGREES
62
root 1.23488 10.6658 4.15438 -184.134 0.626678 -177.574
lowerback 29.3477 -2.82856 7.65992
upperback 11.159 1.65981 -0.36312
thorax -3.4309 2.34581 -5.40317
lowerneck -24.4518 -0.912076 2.04482
upperneck -0.431603 -2.70001 -1.9037
head 3.55633 -1.88637 -1.21102
rclavicle -3.12092e-014 -1.90833e-014
rhumerus 76.261 1.58683 -58.9615
rradius 19.1547
rwrist 22.2993
rhand -17.5649 15.0672
rfingers 7.12502
rthumb 8.69023 -14.7339
lclavicle -3.12092e-014 -1.90833e-014
lhumerus 86.2019 -10.081 43.824
lradius 17.0055
lwrist -15.4234
lhand -17.5936 -4.42462
lfingers 7.12502
lthumb 8.66257 25.3776
rfemur -72.3165 -33.8399 12.3961
rtibia 132.749
rfoot -27.3121 44.4043
rtoes -16.8068
lfemur -72.4518 29.2596 -12.9834
ltibia 135.751
lfoot -30.907 -22.1986
ltoes -25.0551
63
root 1.22521 10.447 4.14016 -184.596 0.736438 -177.508
lowerback 29.7365 -2.89066 7.61294
upperback 11.3298 1.69387 -0.355478
thorax -3.41473 2.40667 -5.3883
lowerneck -24.5892 -0.888916 1.99042
upperneck -0.494832 -2.67799 -1.89698
head 3.5563 -1.88466 -1.19989
rclavicle -1.98785e-015 1.39149e-014
rhumerus 76.1079 1.64334 -58.7091
rradius 19.0614
rwrist 22.4178
rhand -17.5375 14.9614
rfingers 7.12502
rthumb 8.71668 -14.8387
lclavicle -1.98785e-015 1.39149e-014
lhumerus 86.1459 -10.2216 43.8916
lradius 17.01
lwrist -15.3687
lhand -17.4865 -4.52325
lfingers 7.12502
lthumb 8.76586 25.2747
rfemur -72.8438 -36.6182 11.5912
rtibia 134.41
rfoot -27.1559 46.3796
rtoes -16.0669
lfemur -72.9476 32.4771 -12.5004
ltibia 137.459
lfoot -31.3424 -23.6725
ltoes -24.4067
64
root 1.21516 10.2332 4.12281 -185.003 0.815366 -177.443
lowerback 29.9959 -2.95516 7.61018
upperback 11.5189 1.72165 -0.36661
thorax -3.31612 2.46961 -5.41137
lowerneck -24.7703 -0.86281 1.97691
upperneck -0.539476 -2.66477 -1.89652
head 3.56729 -1.88798 -1.1988
rclavicle -1.5704e-014 -3.4191e-014
rhumerus 75.9133 1.67892 -58.2966
rradius 18.9589
rwrist 22.3934
rhand -17.6149 14.904
rfingers 7.12502
rthumb 8.64202 -14.8991
lclavicle -1.5704e-014 -3.4191e-014
lhumerus 86.1013 -10.4027 44.431
lradius 16.9179
lwrist -15.7643
lhand -17.1763 -4.74787
lfingers 7.12502
lthumb 9.06518 25.0373
rfemur -73.327 -39.8142 10.6881
rtibia 136.032
rfoot -27.3084 48.4453
rtoes -15.4954
lfemur -73.4552 35.9884 -11.9576
ltibia 139.134
lfoot -31.9695 -25.1526
ltoes -24.1486
65
root 1.20514 10.0245 4.10221 -185.394 0.895357 -177.361
lowerback 30.2002 -3.01705 7.59516
upperback 11.7013 1.73974 -0.350066
thorax -3.20203 2.52453 -5.39101
lowerneck -24.9333 -0.829783 1.93236
upperneck -0.579512 -2.63193 -1.89213
head 3.57798 -1.88082 -1.18947
rclavicle -2.64384e-014 -1.39149e-014
rhumerus 75.754 1.80438 -57.5264
rradius 18.8303
rwrist 22.0402
rhand -17.7992 14.8303
rfingers 7.12502
rthumb 8.46413 -14.9801
lclavicle -2.64384e-014 -1.39149e-014
lhumerus 85.985 -10.5376 45.004
lradius 16.8253
lwrist -16.2853
lhand -16.6639 -5.03839
lfingers 7.12502
lthumb 9.5596 24.7247
rfemur -73.6702 -43.3933 9.63748
rtibia 137.596
rfoot -27.628 50.6554
rtoes -14.9855
lfemur -73.8582 39.9196 -11.235
ltibia 140.764
lfoot -32.825 -26.6998
ltoes -24.0657
66
root 1.19531 9.82091 4.08041 -185.801 0.956143 -177.312
lowerback 30.3911 -3.0783 7.57331
upperback 11.8883 1.75598 -0.359353
thorax -3.07546 2.58076 -5.39416
lowerneck -25.1208 -0.796881 1.92092
upperneck -0.606737 -2.60855 -1.89845
head 3.59527 -1.87901 -1.19009
rclavicle 1.37161e-014 1.03368e-014
rhumerus 75.5994 1.92664 -56.4935
rradius 18.7215
rwrist 21.2736
rhand -17.9202 14.6979
rfingers 7.12502
rthumb 8.34736 -15.1172
lclavicle 1.37161e-014 1.03368e-014
lhumerus 85.8915 -10.6914 45.4908
lradius 16.7416
lwrist -16.841
lhand -16.0336 -5.25619
lfingers 7.12502
lthumb 10.1677 24.4781
rfemur -73.7819 -47.4968 8.2953
rtibia 139.121
rfoot -28.7429 52.875
rtoes -15.1726
lfemur -74.0491 44.2155 -10.3383
ltibia 142.33
lfoot -33.8757 -28.364
ltoes -24.1247
67
root 1.18548 9.62231 4.05825 -186.235 1.04535 -177.264
lowerback 30.5769 -3.13141 7.53476
upperback 12.0931 1.78414 -0.364793
thorax -2.92475 2.64666 -5.38584
lowerneck -25.3271 -0.745452 1.91902
upperneck -0.650067 -2.5665 -1.93027
head 3.60995 -1.87155 -1.19864
rclavicle 2.56432e-014 -5.56597e-015
rhumerus 75.4794 2.06115 -55.2743
rradius 18.6443
rwrist 20.2647
rhand -18.047 14.4898
rfingers 7.12502
rthumb 8.22495 -15.3301
lclavicle 2.56432e-014 -5.56597e-015
lhumerus 85.8097 -10.7947 45.7573
lradius 16.6753
lwrist -17.3929
lhand -15.4584 -5.49446
lfingers 7.12502
lthumb 10.7227 24.2119
rfemur -73.5527 -51.9432 6.58329
rtibia 140.597
rfoot -30.6336 55.0743
rtoes -15.7068
lfemur -73.9457 49.0467 -9.12475
ltibia 143.852
lfoot -35.3898 -29.8433
ltoes -24.7955
68
root 1.17554 9.43157 4.03601 -186.683 1.1386 -177.198
lowerback 30.7699 -3.19118 7.50504
upperback 12.294 1.80839 -0.357571
thorax -2.7818 2.71024 -5.36748
lowerneck -25.5987 -0.704248 1.88663
upperneck -0.646542 -2.53232 -1.96418
head 3.6266 -1.86951 -1.20561
rclavicle -1.23246e-014 -1.74931e-014
rhumerus 75.4045 2.21869 -54.0137
rradius 18.598
rwrist 19.0621
rhand -18.021 14.2373
rfingers 7.12502
rthumb 8.25005 -15.5816
lclavicle -1.23246e-014 -1.74931e-014
lhumerus 85.7317 -10.8493 45.5708
lradius 16.659
lwrist -17.6462
lhand -15.0697 -5.59402
lfingers 7.12502
lthumb 11.0976 24.0926
rfemur -72.825 -56.7081 4.37702
rtibia 142.006
rfoot -33.3581 57.2216
rtoes -16.4809
lfemur -73.3763 54.3444 -7.37994
ltibia 145.307
lfoot -37.1741 -31.4742
ltoes -25.2037
69
root 1.16564 9.24913 4.01594 -187.137 1.20273 -177.147
lowerback 31.0031 -3.25744 7.49701
upperback 12.4501 1.82226 -0.378694
thorax -2.70627 2.76143 -5.39418
lowerneck -25.7271 -0.659028 1.91019
upperneck -0.698725 -2.50028 -1.9788
head 3.6275 -1.86323 -1.21239
rclavicle 1.45113e-014 8.74653e-015
rhumerus 75.2874 2.34243 -52.8884
rradius 18.5661
rwrist 17.8853
rhand -17.8654 14.0055
rfingers 7.12502
rthumb 8.40027 -15.8074
lclavicle 1.45113e-014 8.74653e-015
lhumerus 85.7846 -10.9504 45.2275
lradius 16.3759
lwrist -17.8982
lhand -15.0268 -5.78407
lfingers 7.12502
lthumb 11.1389 23.9003
rfemur -71.3335 -61.7081 1.36902
rtibia 143.339
rfoot -36.9081 59.2276
rtoes -17.3829
lfemur -72.2426 59.7812 -5.05089
ltibia 146.692
lfoot -39.2285 -32.9246
ltoes -25.8339
70
root 1.15577 9.07404 3.99695 -187.585 1.29279 -177.118
lowerback 31.2051 -3.30106 7.4529
upperback 12.6188 1.85385 -0.394816
thorax -2.60075 2.82238 -5.39786
lowerneck -25.8848 -0.617133 1.90951
upperneck -0.775218 -2.47124 -2.01757
head 3.62446 -1.86309 -1.22367
rclavicle -1.98785e-015 -1.66979e-014
rhumerus 75.2456 2.39081 -52.1584
rradius 18.5134
rwrist 17.1162
rhand -17.6098 13.7244
rfingers 7.12502
rthumb 8.64686 -16.0785
lclavicle -1.98785e-015 -1.66979e-014
lhumerus 85.9358 -11.0117 44.6103
lradius 16.0015
lwrist -17.9267
lhand -15.3143 -5.86749
lfingers 7.12502
lthumb 10.8616 23.8316
rfemur -68.7263 -66.6867 -2.83653
rtibia 144.612
rfoot -41.3187 60.9823
rtoes -18.3833
lfemur -70.0284 65.438 -1.62259
ltibia 148.016
lfoot -41.632 -34.1704
ltoes -26.6226
71
root 1.14576 8.90699 3.98182 -188.02 1.36798 -177.07
lowerback 31.7986 -3.38779 7.44359
upperback 12.4676 1.8964 -0.602381
thorax -2.65065 2.87745 -5.2213
lowerneck -26.0345 -0.568275 1.8839
upperneck -0.744315 -2.40944 -2.04981
head 3.65547 -1.83965 -1.22643
rclavicle 1.63003e-014 7.95139e-015
rhumerus 75.1017 2.45403 -52.2376
rradius 18.4712
rwrist 17.1674
rhand -17.275 13.5795
rfingers 7.12502
rthumb 8.97 -16.2098
lclavicle 1.63003e-014 7.95139e-015
lhumerus 85.9583 -11.0882 44.1713
lradius 15.6369
lwrist -18.155
lhand -15.8999 -5.91397
lfingers 7.12502
lthumb 10.2967 23.814
rfemur -64.2255 -71.4922 -8.92873
rtibia 145.82
rfoot -46.4219 62.329
rtoes -19.3912
lfemur -66.0266 70.9572 3.66085
ltibia 149.269
lfoot -44.1455 -35.2112
ltoes -27.3143
72
root 1.13557 8.75165 3.97002 -188.439 1.44916 -177.039
lowerback 32.0336 -3.42246 7.40415
upperback 12.5732 1.92681 -0.616291
thorax -2.6243 2.92461 -5.22457
lowerneck -26.138 -0.53728 1.89543
upperneck -0.743097 -2.38097 -2.08899
head 3.66976 -1.83275 -1.23955
rclavicle 3.97569e-015 1.11319e-014
rhumerus 75.0009 2.37992 -52.9647
rradius 18.3239
rwrist 17.905
rhand -16.9424 13.5209
rfingers 7.12502
rthumb 9.29092 -16.2544
lclavicle 3.97569e-015 1.11319e-014
lhumerus 85.9317 -11.2308 43.9505
lradius 15.3177
lwrist -18.5519
lhand -16.5736 -5.82425
lfingers 7.12502
lthumb 9.64673 23.9349
rfemur -56.7918 -75.7156 -17.9493
rtibia 146.931
rfoot -51.6163 63.2921
rtoes -20.261
lfemur -59.2077 75.7795 11.7461
ltibia 150.429
lfoot -46.4285 -35.9945
ltoes -27.7344
73
root 1.125 8.61172 3.96226 -188.849 1.51016 -177.009
lowerback 32.296 -3.46438 7.36
upperback 12.6637 1.94774 -0.625067
thorax -2.62506 2.96444 -5.21849
lowerneck -26.2728 -0.508633 1.90335
upperneck -0.690517 -2.35039 -2.12618
head 3.70465 -1.82289 -1.25208
rclavicle -1.09332e-014 -4.77083e-015
rhumerus 74.9373 2.26514 -53.805
rradius 18.2157
rwrist 18.7223
rhand -16.5934 13.4625
rfingers 7.12502
rthumb 9.62763 -16.2975
lclavicle -1.09332e-014 -4.77083e-015
lhumerus 85.8259 -11.3711 44.0042
lradius 15.036
lwrist -19.1447
lhand -17.2545 -5.70692
lfingers 7.12502
lthumb 8.98981 24.0815
rfemur -45.0459 -78.9849 -31.2155
rtibia 147.934
rfoot -56.5411 63.8121
rtoes -21.0529
lfemur -47.1489 79.6571 25.0143
ltibia 151.482
lfoot -48.6028 -36.4372
ltoes -28.4484
74
root 1.11461 8.48891 3.95499 -189.219 1.58934 -176.999
lowerback 32.5541 -3.49419 7.31585
upperback 12.7248 1.96944 -0.664087
thorax -2.65414 2.99836 -5.24588
lowerneck -26.4242 -0.472649 1.93975
upperneck -0.587086 -2.31345 -2.14973
head 3.75797 -1.80627 -1.26462
rclavicle 3.55825e-014 -1.55052e-014
rhumerus 74.8695 2.10098 -55.0623
rradius 18.0505
rwrist 19.9481
rhand -16.4051 13.5081
rfingers 7.12502
rthumb 9.80933 -16.2434
lclavicle 3.55825e-014 -1.55052e-014
lhumerus 85.6098 -11.5368 44.2436
lradius 14.8779
lwrist -19.8186
lhand -17.7422 -5.5164
lfingers 7.12502
lthumb 8.51913 24.2917
rfemur -28.7209 -81.0215 -48.958
rtibia 148.81
rfoot -60.697 64.1667
rtoes -21.52
lfemur -27.4395 82.1483 45.8087
ltibia 152.389
lfoot -50.4318 -36.7776
ltoes -28.8715
